<svg xmlns="http://www.w3.org/2000/svg" width="110.663" height="28" viewBox="0 0 110.663 28"><g transform="translate(-81.159 -93)"><g transform="translate(81.159 93)"><path d="M73.659,70.378l-1.307-3.553a7.778,7.778,0,0,1-5.309,2.369c-2.818,0-4.819-2.45-4.819-6.371,0-5.023,2.532-6.82,5.023-6.82,3.594,0,4.737,2.328,5.718,5.309L74.271,65.4c1.307,3.961,3.757,7.147,10.822,7.147,5.065,0,8.5-1.552,8.5-5.636,0-3.308-1.879-5.023-5.391-5.84l-2.614-.572c-1.8-.408-2.328-1.144-2.328-2.369,0-1.389,1.1-2.205,2.9-2.205,1.96,0,3.022.735,3.186,2.491l4.084-.49c-.327-3.676-2.859-5.187-7.024-5.187-3.675,0-7.269,1.389-7.269,5.84,0,2.777,1.348,4.533,4.737,5.35l2.777.653c2.083.49,2.777,1.348,2.777,2.532,0,1.511-1.47,2.123-4.247,2.123-4.125,0-5.84-2.164-6.82-5.146L77.008,60c-1.715-5.309-4.452-7.27-9.883-7.27-6,0-9.189,3.8-9.189,10.251,0,6.208,3.186,9.557,8.9,9.557,4.614,0,6.82-2.164,6.82-2.164Z" transform="translate(-48.87 -44.543)" fill="#d51007"/><path d="M7.311,25.465a4.456,4.456,0,0,1-1.348.2,1.475,1.475,0,0,1-1.675-1.63V1.827H0V25.058c0,3.057,2.124,4.32,4.615,4.32a10.305,10.305,0,0,0,2.573-.367l.123-3.546Z" transform="translate(0 -1.541)" fill="#d51007"/><path d="M308.871,45.733a5.208,5.208,0,0,1-3.185,1.1c-1.552,0-2.41-.815-2.41-2.811V34.488h5.636V31.148h-5.6V26.625l-4.329.53v3.993h-2.736v3.341h2.736v10.43c0,3.749,2.165,5.541,5.677,5.541a10.01,10.01,0,0,0,4.983-1.14l-.776-3.586Z" transform="translate(-250.009 -22.459)" fill="#d51007"/><path d="M400.718,142.158a3.022,3.022,0,1,0,2.981-3.022,2.981,2.981,0,0,0-2.981,3.022Z" transform="translate(-338.16 -117.425)" fill="#d51007"/><path d="M452.974,12.023V27.51h4.288V12.023h4.819V8.681h-4.819V6.969c0-2.567,1.1-3.383,2.9-3.383a5.968,5.968,0,0,1,3.1.815l.694-3.587A9.659,9.659,0,0,0,459.836,0c-3.594,0-6.862,1.712-6.862,6.806V8.681h-2.736v3.342Z" transform="translate(-379.961)" fill="#d51007"/><path d="M554.562,56.9c-.49-3.063-2.491-4.166-5.105-4.166a5.728,5.728,0,0,0-5.841,4.084l-.531-3.635h-3.471V72.047H543.9V61.388c0-3.635,1.879-5.024,3.88-5.024,2.083,0,2.941,1.389,2.941,3.635V72.047h4.247v-10.7c0-3.595,1.92-4.983,3.921-4.983,2.042,0,2.9,1.389,2.9,3.635V72.047h4.288V58.488c0-4.043-2.369-5.759-5.514-5.759a5.863,5.863,0,0,0-6,4.166Z" transform="translate(-455.417 -44.537)" fill="#d51007"/></g></g></svg>