<svg xmlns="http://www.w3.org/2000/svg" width="48" height="48" viewBox="0 0 48 48"><path d="M24,4A20,20,0,1,1,4,24,20.023,20.023,0,0,1,24,4Zm0-4A24,24,0,1,0,48,24,24,24,0,0,0,24,0ZM22.586,29.21,21.7,26.818a5.232,5.232,0,0,1-3.57,1.6c-1.9,0-3.246-1.65-3.246-4.29,0-3.382,1.7-4.592,3.382-4.592,2.418,0,3.188,1.568,3.848,3.574l.88,2.75c.878,2.666,2.53,4.81,7.284,4.81,3.41,0,5.718-1.044,5.718-3.792,0-2.228-1.266-3.382-3.628-3.932l-1.758-.386c-1.21-.274-1.568-.768-1.568-1.594,0-.934.74-1.484,1.952-1.484,1.32,0,2.036.494,2.144,1.678l2.748-.33c-.22-2.474-1.922-3.492-4.728-3.492-2.472,0-4.892.934-4.892,3.93,0,1.87.908,3.052,3.19,3.6l1.872.44c1.4.33,1.868.906,1.868,1.7,0,1.018-.988,1.43-2.86,1.43-2.778,0-3.93-1.456-4.59-3.464l-.908-2.748c-1.154-3.574-3-4.894-6.654-4.894-4.044,0-6.188,2.556-6.188,6.9,0,4.18,2.144,6.432,5.994,6.432a6.757,6.757,0,0,0,4.592-1.456Z" fill="#d51007"/></svg>