<svg xmlns="http://www.w3.org/2000/svg" width="48" height="48" viewBox="0 0 48 48"><path d="M38,0H10A10,10,0,0,0,0,10V38A10,10,0,0,0,10,48H38A10,10,0,0,0,48,38V10A10,10,0,0,0,38,0ZM32.376,32.888c-6.34,0-8.54-2.858-9.712-6.414L21.49,22.808c-.88-2.676-1.906-4.764-5.13-4.764-2.238,0-4.51,1.612-4.51,6.122,0,3.518,1.8,5.718,4.326,5.718a6.98,6.98,0,0,0,4.764-2.126l1.174,3.19s-1.98,1.942-6.122,1.942C10.86,32.888,8,29.884,8,24.312c0-5.792,2.86-9.2,8.248-9.2,4.876,0,7.332,1.758,8.872,6.524L26.33,25.3c.878,2.676,2.418,4.62,6.122,4.62,2.492,0,3.812-.55,3.812-1.906,0-1.064-.624-1.834-2.492-2.272l-2.492-.586c-3.042-.734-4.254-2.31-4.254-4.8,0-4,3.226-5.242,6.524-5.242,3.742,0,6.012,1.356,6.3,4.656l-3.664.44c-.144-1.576-1.1-2.236-2.86-2.236-1.614,0-2.6.734-2.6,1.98,0,1.1.476,1.758,2.09,2.124l2.344.514c3.152.734,4.84,2.272,4.84,5.242,0,3.662-3.08,5.054-7.626,5.054Z" fill="#d51007"/></svg>