<svg xmlns="http://www.w3.org/2000/svg" width="48" height="48" viewBox="0 0 48 48"><path d="M24,0A24,24,0,1,0,48,24,24,24,0,0,0,24,0Zm7.328,31.778c-5.546,0-7.472-2.5-8.5-5.612L21.8,22.958c-.77-2.34-1.668-4.168-4.488-4.168-1.958,0-3.948,1.412-3.948,5.356,0,3.078,1.572,5,3.788,5a6.1,6.1,0,0,0,4.166-1.862l1.03,2.792a7.875,7.875,0,0,1-5.358,1.7C12.5,31.778,10,29.148,10,24.272c0-5.068,2.5-8.05,7.214-8.05,4.266,0,6.416,1.54,7.762,5.708l1.06,3.208c.77,2.342,2.116,4.042,5.356,4.042,2.182,0,3.336-.48,3.336-1.668,0-.93-.546-1.6-2.18-1.988l-2.182-.512c-2.662-.642-3.722-2.02-3.722-4.2,0-3.5,2.824-4.586,5.708-4.586,3.276,0,5.26,1.186,5.518,4.074l-3.208.384c-.126-1.38-.96-1.958-2.5-1.958-1.412,0-2.276.642-2.276,1.732,0,.962.416,1.54,1.828,1.86l2.05.45C36.524,23.408,38,24.754,38,27.352c0,3.206-2.694,4.426-6.672,4.426Z" fill="#d51007"/></svg>